<?xml version="1.0" encoding="utf-8"?>
<!-- Generator: Adobe Illustrator 21.0.0, SVG Export Plug-In . SVG Version: 6.00 Build 0)  -->
<svg version="1.1" id="Layer_1" xmlns="http://www.w3.org/2000/svg" xmlns:xlink="http://www.w3.org/1999/xlink" x="0px" y="0px"
	 viewBox="0 0 288 288" style="enable-background:new 0 0 288 288;" xml:space="preserve">
<style type="text/css">
	.st0{fill:#231F20;}
	.st1{fill:#FFFFFF;}
	.st2{fill:none;stroke:#010101;stroke-miterlimit:10;}
	.st3{opacity:0.7;}
	.st4{fill:#81AA63;}
	.st5{fill:#647FA6;}
	.st6{fill:none;stroke:#231F20;stroke-miterlimit:10;}
</style>
<g>
	<g>
		<g>
			<g>
				<path class="st0" d="M242.8,251.4c0.2-5.5,0.3-11,0.3-16.5c0-8.4-1.2-16.6-1.5-24.9c-0.3-8.3,0.3-16.7,0.4-25.1
					c0-7.2,0.1-14.5-0.3-21.7c-0.7-10.8-0.9-21.5-1.2-32.3c-0.2-6.9-0.3-13.8-0.5-20.7c-0.1-6.6-0.2-13,0.8-19.5
					c1.2-7.1,0.6-14.5,0.5-21.7c-0.1-6.7-0.6-13.6,0.1-20.3c0.1-0.6-0.9-0.6-1,0c-0.6,5.7-0.2,11.6-0.2,17.3
					c0,6.6,0.5,13.3,0.1,19.9c-0.2,3.7-1.2,7.4-1.5,11.2c-0.2,3.1-0.1,6.2-0.1,9.4c0.1,6.4,0.3,12.8,0.4,19.2
					c0.6,25.4,2.2,50.7,1.3,76.2c-0.4,10.1,1.4,20,1.5,30c0.1,6.5-0.1,13-0.3,19.5C241.8,252,242.8,252,242.8,251.4L242.8,251.4z"/>
			</g>
		</g>
		<g>
			<path class="st1" d="M213.5,120.4c0,0,26.8,1.4,33.5,0c0,0-0.2,33.2,17.1,44.6c0,0-18.7,19.2-38.7,22.5
				C225.4,187.5,209.2,159,213.5,120.4z"/>
		</g>
		<path class="st2" d="M42.9,182.7"/>
		<path class="st2" d="M44.6,122.8"/>
		<g>
			<g>
				<g>
					<path class="st0" d="M188.3,50.1c0.2,16.8,0.4,33.6,0.6,50.4c0,2.4,0.1,4.7,0.1,7.1c0,0.6,1,0.6,1,0
						c-0.2-16.8-0.4-33.6-0.6-50.4c0-2.4-0.1-4.7-0.1-7.1C189.3,49.4,188.3,49.4,188.3,50.1L188.3,50.1z"/>
				</g>
			</g>
			<g>
				<g>
					<path class="st0" d="M189,107.6c-0.4,4.3-1.4,8.5-1.6,12.8c-0.1,3.2-0.1,6.5-0.1,9.7c0,5,0.1,10.1,0.1,15.1
						c0,0.2,0.1,0.3,0.2,0.4c0.7,0.4,1.4,0.7,2,1.1c0.6,0.3,1.1-0.5,0.5-0.9c-1.3-0.7-1.5-0.4-1.8-1.5c-0.2-0.9,0-2.1,0-3
						c0-3.5-0.1-7.1-0.1-10.6c0-3.3,0-6.6,0.1-9.9c0.1-4.4,1.2-8.8,1.6-13.2C190.1,107,189.1,107,189,107.6L189,107.6z"/>
				</g>
			</g>
			<g>
				<g>
					<path class="st0" d="M190.4,241.7c-0.1,3.2-0.1,6.5,0.2,9.7c0.1,0.6,1,0.7,1,0c0-3.9-0.1-7.8-0.1-11.6c0-0.6-1-0.6-1,0
						C190.5,240.4,190.4,241,190.4,241.7c0,0.6,1,0.6,1,0c0-0.7,0.1-1.3,0.1-2c-0.3,0-0.7,0-1,0c0,3.9,0.1,7.8,0.1,11.6
						c0.3,0,0.7,0,1,0c-0.3-3.2-0.3-6.5-0.2-9.7C191.4,241,190.4,241,190.4,241.7z"/>
				</g>
			</g>
			<g>
				<g>
					<path class="st0" d="M188,196.3c0.2,6.2,0.3,12.4,0.8,18.6c0.4,4.8,1.2,9.6,1.6,14.5c0.1,0.6,1.1,0.6,1,0
						c-0.4-4.8-1.2-9.6-1.6-14.5c-0.4-6.2-0.6-12.4-0.8-18.6C189,195.6,188,195.6,188,196.3L188,196.3z"/>
				</g>
			</g>
			<g>
				<g>
					<path class="st0" d="M190.4,229.3c0,3.5,0.1,6.9,0.1,10.4c0,0.6,1,0.6,1,0c0.2-3.5,0.1-6.9-0.1-10.4
						C191.3,228.7,190.3,228.7,190.4,229.3c0.3,3.5,0.3,6.9,0.1,10.4c0.3,0,0.7,0,1,0c0-3.5-0.1-6.9-0.1-10.4
						C191.4,228.7,190.4,228.7,190.4,229.3z"/>
				</g>
			</g>
			<g>
				<g>
					<path class="st0" d="M156.4,68.6c-0.1-0.4-0.1-1.1-0.6-1.3c-0.4-0.2-0.7,0.2-0.8,0.6c-0.2,0.7-0.2,1.6-0.2,2.3
						c-0.1,1.6-0.1,3.1,0,4.7c0,0.6,0.8,0.7,1,0.1C156.2,73,156.7,70.8,156.4,68.6c-0.1-0.6-1.1-0.4-1,0.3c0.3,2-0.2,4-0.7,5.9
						c0.3,0,0.7,0.1,1,0.1c0-1.7,0-3.4,0-5c0-0.4,0.3-1.2,0.2-1.6c-0.1-0.2-0.4-0.5-0.6-0.1c0,0.1,0.1,0.6,0.2,0.7
						C155.5,69.5,156.5,69.3,156.4,68.6z"/>
				</g>
			</g>
			<g>
				<g>
					<path class="st0" d="M203,155.3c-3.3-4.1-8.3-6.9-12.8-9.5c-0.6-0.3-1.1,0.5-0.5,0.9c4.5,2.5,9.4,5.3,12.6,9.3
						C202.7,156.5,203.4,155.8,203,155.3L203,155.3z"/>
				</g>
			</g>
			<g>
				<g>
					<path class="st0" d="M188.2,144.7c-2.6-1.4-5.6-2.5-7.6-4.7c-2-2.2-3.4-4.9-4.6-7.6c-2.3-4.9-3.6-9.9-6.6-14.5
						c-1.5-2.3-3.2-4.4-4.5-6.8c-0.8-1.4-1.1-3-1.5-4.5c-1.3-4.6-2.7-9.1-4.1-13.7c-0.7-2.3-1.4-4.6-2.1-6.9
						c-1.1-3.6-1.2-7.5-1.3-11.2c0-0.6-0.8-0.7-1-0.1c-1.2,4.5-2.8,9-1.3,13.6c1.1,3.2,2,6.3,2.8,9.6c1.2,4.9,2.2,9.8,3.1,14.7
						c0.9,5.2,1.3,10.4,2.2,15.6c1.4,8.1,5.5,15.3,10.5,21.7c1.7,2.2,3.7,4.3,5.3,6.6c2.4,3.5,2.8,8.4,3.5,12.5
						c1.6,9.3,4.9,18.1,7.3,27.3c0.1,0.5,1,0.4,1-0.1v0c0-0.6-1-0.6-1,0v0c0.3,0,0.7-0.1,1-0.1c-2-7.8-5-15.4-6.6-23.3
						c-0.8-4.3-1.2-8.7-2.6-12.9c-0.8-2.6-2.3-4.6-4-6.6c-5-6-9.6-12.4-12.1-19.9c-1.6-4.8-1.8-9.8-2.5-14.7c-0.7-5-1.6-10-2.7-14.9
						c-0.9-4.4-2-8.8-3.3-13.1c-0.6-2-1.5-3.8-1.5-6c0-3.3,1.1-6.5,1.9-9.6c-0.3,0-0.7-0.1-1-0.1c0.1,3.4,0.2,6.9,1,10.2
						c0.5,2,1.2,4,1.8,6c1.5,5,3.1,10,4.5,15c0.4,1.4,0.7,2.9,1.2,4.3c0.9,2.3,2.6,4.3,4,6.3c1.8,2.7,3.6,5.3,4.7,8.4
						c0.9,2.4,1.8,4.9,2.8,7.2c1.2,2.8,2.7,5.6,4.7,7.9c2.2,2.6,5.3,3.7,8.2,5.3C188.2,145.9,188.7,145,188.2,144.7L188.2,144.7z"/>
				</g>
			</g>
		</g>
		<g>
			<g>
				<g>
					<path class="st0" d="M94,229.3c0.2-2.9,0.6-5.8,1-8.7c0.1-0.6-0.9-0.6-1,0c-0.4,2.9-0.7,5.8-1,8.7
						C92.9,229.9,93.9,229.9,94,229.3L94,229.3z"/>
				</g>
			</g>
			<g>
				<g>
					<path class="st0" d="M95,50.1c-0.2,7.5-0.3,15.1-0.5,22.6c-0.2,11.6-1.1,23.4-0.2,34.9c0.1,0.6,1.1,0.6,1,0
						c-0.9-11.5,0-23.4,0.2-34.9c0.1-7.5,0.3-15.1,0.5-22.6C96.1,49.4,95.1,49.4,95,50.1L95,50.1z"/>
				</g>
			</g>
			<g>
				<g>
					<path class="st0" d="M94,241.7c0-0.7-0.1-1.3-0.1-2c0-0.6-1-0.6-1,0c0,3.9-0.1,7.8-0.1,11.6c0,0.7,0.9,0.6,1,0
						C94.1,248.1,94.1,244.9,94,241.7c0-0.6-1-0.6-1,0c0.1,3.2,0.1,6.5-0.2,9.7c0.3,0,0.7,0,1,0c0-3.9,0.1-7.8,0.1-11.6
						c-0.3,0-0.7,0-1,0c0,0.7,0.1,1.3,0.1,2C93,242.3,94,242.3,94,241.7z"/>
				</g>
			</g>
			<g>
				<g>
					<path class="st0" d="M93.9,239.7c0-3.5,0.1-6.9,0.1-10.4c0-0.7-1-0.6-1,0c-0.3,3.5-0.3,6.9-0.1,10.4
						C92.9,240.4,93.9,240.4,93.9,239.7c-0.2-3.5-0.1-6.9,0.1-10.4c-0.3,0-0.7,0-1,0c0,3.5-0.1,6.9-0.1,10.4
						C92.9,240.4,93.9,240.4,93.9,239.7z"/>
				</g>
			</g>
			<g>
				<g>
					<path class="st0" d="M94.4,107.6c-0.1,10.7-0.2,21.4-0.4,32.1c-0.2,16.9-0.4,33.9-0.6,50.8c0,3.9-0.1,7.8-0.1,11.7
						c0,0.4,0.4,0.6,0.8,0.4c0.6-0.4,1.3-0.7,1.9-1.1c0.6-0.3,0.1-1.2-0.5-0.9c-0.6,0.3-1.3,0.7-1.9,1.1c0.3,0.1,0.5,0.3,0.8,0.4
						c0.1-10.7,0.2-21.4,0.4-32.1c0.2-16.9,0.4-33.9,0.6-50.8c0-3.9,0.1-7.8,0.1-11.7C95.4,107,94.4,107,94.4,107.6L94.4,107.6z"/>
				</g>
			</g>
			<g>
				<g>
					<path class="st0" d="M44,75.6c0.1-5.4,0.1-10.8,0.1-16.2c0-3.6,0.2-7.2-0.2-10.8c-0.1-0.6-1.1-0.6-1,0
						c0.4,3.6,0.2,7.2,0.2,10.8c0,5.4-0.1,10.8-0.1,16.2C43,76.3,44,76.3,44,75.6L44,75.6z"/>
				</g>
			</g>
			<g>
				<g>
					<path class="st0" d="M43.7,200.9c-0.1-4,0.2-8.1,0.2-12.1c0-0.6-1-0.6-1,0c-0.2,9.6-0.4,19.1-0.7,28.7c0,0.7,0.9,0.6,1,0
						C43.7,211.9,43.9,206.4,43.7,200.9c0-0.6-1-0.6-1,0c0.2,5.5,0,11-0.5,16.5c0.3,0,0.7,0,1,0c0.2-9.6,0.4-19.1,0.7-28.7
						c-0.3,0-0.7,0-1,0c0.1,4-0.3,8.1-0.2,12.1C42.7,201.5,43.7,201.5,43.7,200.9z"/>
				</g>
			</g>
			<g>
				<g>
					<path class="st0" d="M42.6,251.4c0.2-11.3,0.4-22.6,0.7-33.9c0-0.7-0.9-0.6-1,0c-1.1,11.3-1.1,22.6-0.7,33.9
						C41.6,252,42.6,252,42.6,251.4c-0.4-11.4-0.5-22.6,0.7-33.9c-0.3,0-0.7,0-1,0c-0.2,11.3-0.4,22.6-0.7,33.9
						C41.6,252,42.6,252,42.6,251.4z"/>
				</g>
			</g>
			<g>
				<g>
					<path class="st0" d="M44.9,129.7c0.3-10.4,1-20.9,0.6-31.2c0-0.6-1-0.6-1,0c-0.2,10.5-0.4,21.1-0.6,31.6c0,0.7,0.9,0.6,1,0
						C44.9,129.9,44.9,129.8,44.9,129.7c0-0.6-1-0.6-1,0c0,0.1,0,0.2,0,0.4c0.3,0,0.7,0,1,0c0.2-10.5,0.4-21.1,0.6-31.6
						c-0.3,0-0.7,0-1,0c0.5,10.4-0.3,20.9-0.6,31.2C43.9,130.3,44.9,130.3,44.9,129.7z"/>
				</g>
			</g>
			<g>
				<g>
					<path class="st0" d="M94.9,220.9c2.2-3.6,2.9-7.5,3.7-11.5c0.8-3.8,4-6.3,5.7-9.7c2.2-4.4,2.2-9.5,3.2-14.3
						c0.4-2.1,1-4.1,1.6-6.2c0.7-2.1,0.1-3.8-0.4-5.9c-0.1-0.6-1-0.4-1,0.1c-0.1,4.5-1.7,9.4-3.3,13.6c-0.8,2.3-2.7,4-3.6,6.3
						c-1.2,3.2-2.2,5.7-5.4,7.4c-0.6,0.3-0.1,1.2,0.5,0.9c2.6-1.3,3.7-2.8,4.9-5.5c0.6-1.5,1.1-3.1,1.9-4.5c0.8-1.3,1.9-2.5,2.5-3.9
						c0.9-2,1.3-4.3,1.9-6.3c0.8-2.8,1.5-5.1,1.6-8.1c-0.3,0-0.7,0.1-1,0.1c0.4,1.4,0.9,2.9,0.7,4.4c-0.1,0.8-0.5,1.6-0.7,2.4
						c-0.6,2.1-1.1,4.2-1.5,6.4c-0.9,4.9-1,9.8-3.7,14.1c-1.6,2.5-4,4.4-4.7,7.4c-1,4.2-1.5,8.2-3.8,12
						C93.7,220.9,94.6,221.4,94.9,220.9L94.9,220.9z"/>
				</g>
			</g>
			<g>
				<g>
					<path class="st0" d="M107.5,170.9c-0.1,0.9,0.1,1.8,0.3,2.7c0.1,0.6,1,0.4,1-0.1c0-0.6,0-1.2,0-1.8c0-0.4,0-0.8-0.1-1.1
						c-0.1-0.3-0.3-0.5-0.7-0.4C107.6,170.2,107.5,170.6,107.5,170.9c-0.1,0.6,0.8,0.9,1,0.3c0-0.1,0-0.1,0-0.2
						c0.1-0.2,0-0.1-0.3,0.2c-0.1,0-0.3,0-0.4-0.1c-0.5-0.3-0.1-0.3-0.2-0.1c0,0,0,0.1,0,0.2c0,0.2,0,0.4,0,0.6c0,0.6,0,1.2,0,1.8
						c0.3,0,0.7-0.1,1-0.1c-0.2-0.7-0.4-1.5-0.3-2.2C108.5,170.5,107.6,170.2,107.5,170.9z"/>
				</g>
			</g>
			<g>
				<g>
					<path class="st0" d="M43.7,75.2c-2.1-1.3-4-2.2-5.3-4.3c-1.3-2-2.2-4.2-3.1-6.3c-0.8-2-1.7-3.9-2.8-5.7c-1-1.7-2.2-3.2-2.9-5.1
						c-2.5-6.8-5.4-13.6-6.7-20.8c-0.1-0.6-1-0.4-1,0.1c0,2.9-0.2,5.8,0.9,8.6c0.8,2.2,1.7,4.4,2.4,6.7c2.2,6.7,3.4,13.7,5.8,20.3
						c1.7,4.8,4.4,8.9,7.4,12.9c1.4,1.9,2.2,4.1,2.9,6.4c1,3.6,2,7.1,3.3,10.5c0.2,0.6,1.2,0.3,1-0.3c-1.3-3.3-2.3-6.7-3.2-10.1
						c-0.6-2.2-1.2-4.4-2.5-6.3c-2.9-4.1-5.8-7.9-7.6-12.7c-2.4-6.3-3.6-13.2-5.6-19.6c-0.8-2.4-1.5-4.8-2.4-7.1
						c-1.2-3.1-1.3-6-1.3-9.3c-0.3,0-0.7,0.1-1,0.1c0.8,4.3,2.2,8.2,3.7,12.3c1.1,3,2.1,6.2,3.3,9.2c0.8,2,2.3,3.7,3.3,5.5
						c1.2,2,2,4.3,3,6.4c0.9,2,1.8,4.1,3.2,5.8c1.3,1.6,3.1,2.3,4.8,3.4C43.8,76.4,44.3,75.6,43.7,75.2L43.7,75.2z"/>
				</g>
			</g>
			<g>
				<g>
					<path class="st0" d="M43.1,76c2,1.7,3.9,3.3,5.9,5c0.4,0.3,1.1-0.1,0.8-0.6c-1.6-2.2-3.9-3.7-6.1-5.2c-0.5-0.3-1,0.5-0.5,0.9
						c2.1,1.3,4.2,2.8,5.7,4.8c0.3-0.2,0.5-0.4,0.8-0.6c-2-1.7-3.9-3.3-5.9-5C43.4,74.9,42.6,75.6,43.1,76z"/>
				</g>
			</g>
			<g>
				<g>
					<path class="st0" d="M22.8,33.2c0-1.1,0-2.3-0.2-3.4c-0.1-0.4-0.2-1.3-0.6-1.5c-0.2-0.1-0.4-0.1-0.6,0.1
						c-0.4,0.3-0.1,1.1-0.1,1.5c0.1,1.2,0.3,2.3,0.6,3.5c0.1,0.6,1.1,0.4,1-0.3c-0.2-0.9-0.3-1.9-0.5-2.8c0-0.3-0.1-0.6-0.1-1
						c0-0.1,0-0.2,0-0.3c-0.1-0.2,0.2-0.2-0.1,0.1c-0.2,0-0.4,0.1-0.6,0.1c-0.2-0.1-0.1-0.1,0,0.2c0.1,0.4,0.2,0.8,0.2,1.2
						c0.1,0.9,0.1,1.8,0.1,2.7C21.8,33.9,22.8,33.9,22.8,33.2z"/>
				</g>
			</g>
			<g>
				<g>
					<path class="st0" d="M44.5,98.6c1,2.8,2,5.7,3,8.5c0.2,0.6,1.2,0.3,1-0.3c-1-2.9-2-5.7-3-8.5C45.3,97.7,44.3,98,44.5,98.6
						c1.1,2.8,2.1,5.7,3,8.5c0.3-0.1,0.6-0.2,1-0.3c-1-2.8-2-5.7-3-8.5C45.3,97.7,44.3,98,44.5,98.6z"/>
				</g>
			</g>
		</g>
		<g>
			<g>
				<path class="st0" d="M231.1,125c2.1,0.9,4.3,1.7,6.4,2.6c0.6,0.2,0.9-0.7,0.3-1c-2.1-0.9-4.3-1.7-6.4-2.6
					C230.8,123.8,230.5,124.8,231.1,125L231.1,125z"/>
			</g>
		</g>
		<g class="st3">
			<path class="st4" d="M72.1,132.3c0,0-26.8,1.4-33.5,0c0,0,0.2,33.2-17.1,44.6c0,0,18.7,19.2,38.7,22.5
				C60.2,199.4,76.5,170.8,72.1,132.3z"/>
		</g>
		<g>
			<g>
				<path class="st0" d="M74.9,129c-4.7,0.2-9.3,0.4-14,0.5c-6.3,0.1-13.2,0.7-19.4-0.5c-0.3-0.1-0.6,0.1-0.6,0.5
					c0,5.8-0.7,11.7-1.9,17.4c-2.1,10-6.1,20.8-14.9,26.8c-0.3,0.2-0.3,0.5-0.1,0.8c10.3,10.5,24.3,20.1,39,22.6
					c0.2,0,0.4,0,0.6-0.2c3.4-6,5.7-12.7,7.6-19.2c4.6-15.6,6.1-32,4.4-48.1c-0.1-0.6-1.1-0.6-1,0c2.1,19.2-0.4,38.8-7.4,56.9
					c-0.9,2.4-1.9,4.7-3,7c-0.3,0.5-0.9,2.6-1.5,2.9c-0.2,0.1-3.5-1-4.1-1.2c-2.7-0.7-5.3-1.7-7.8-2.9c-4.3-2-8.4-4.4-12.2-7
					c-4.9-3.4-9.7-7.2-13.9-11.4c0,0.3-0.1,0.5-0.1,0.8c8.7-5.9,12.9-16.4,15.2-26.4c1.4-6.1,2.2-12.4,2.2-18.7
					c-0.2,0.2-0.4,0.3-0.6,0.5c6.2,1.2,12.9,0.7,19.2,0.5c4.8-0.1,9.7-0.3,14.5-0.5C75.5,130,75.5,129,74.9,129z"/>
			</g>
		</g>
		<g>
			<g>
				<path class="st0" d="M57,133.2c-2.1,0.9-4.3,1.7-6.4,2.6c-0.6,0.2-0.3,1.2,0.3,1c2.1-0.9,4.3-1.7,6.4-2.6
					C57.9,133.9,57.6,132.9,57,133.2L57,133.2z"/>
			</g>
		</g>
		<g>
			<g>
				<path class="st0" d="M213.5,120.9c4.8,0.2,9.7,0.4,14.5,0.5c6.3,0.1,13,0.7,19.2-0.5c-0.2-0.2-0.4-0.3-0.6-0.5
					c0,6.2,0.8,12.6,2.2,18.7c2.2,9.9,6.4,20.4,15.2,26.4c0-0.3-0.1-0.5-0.1-0.8c-3.4,3.5-7.3,6.7-11.2,9.6
					c-3.7,2.7-7.5,5.2-11.6,7.3c-2.3,1.2-4.8,2.3-7.2,3.2c-2.3,0.8-4.8,1.2-7,2c-1.2,0.5-0.5,0.6-1.1,0.1c-0.3-0.3-0.5-1-0.7-1.5
					c-1-2-1.9-4-2.7-6c-2.9-7-5-14.3-6.5-21.7c-2.5-12.2-3-24.8-1.7-37.2c0.1-0.6-0.9-0.6-1,0c-1.7,16.2-0.2,32.6,4.4,48.1
					c1.9,6.5,4.3,13.2,7.6,19.2c0.1,0.2,0.3,0.3,0.6,0.2c14.7-2.5,28.7-12.1,39-22.6c0.2-0.2,0.2-0.6-0.1-0.8
					c-8.8-6-12.8-16.8-14.9-26.8c-1.2-5.7-2-11.6-1.9-17.4c0-0.3-0.3-0.5-0.6-0.5c-6.3,1.2-13.1,0.6-19.4,0.5
					c-4.7-0.1-9.3-0.3-14-0.5C212.9,119.9,212.9,120.9,213.5,120.9z"/>
			</g>
		</g>
		<g class="st3">
			<path class="st5" d="M216.3,123.7c0,0,26.8,1.4,33.5,0c0,0-0.2,33.2,17.1,44.6c0,0-18.7,19.2-38.7,22.5
				C228.2,190.8,212,162.3,216.3,123.7z"/>
		</g>
	</g>
	<path class="st6" d="M47.2,53.5c0,0,8.6,23.6,6.8,29.2s-4.6,7.1-3.2,13c1.4,5.9-1.7,14.4-2.8,18.5c-1.1,4.1,0,10.3,0,10.3"/>
	<path class="st6" d="M88,56.9c0,0,1.6,29.2,0,37.9c-1.6,8.7-2.8,19.9-1.2,25.6c1.6,5.7,3.2,25.3,1.9,33.5"/>
	<path class="st6" d="M80.6,74.6c0,0,1.2,31.7-1.6,35.1c-2.8,3.4-1.2,19.8-1.2,19.8"/>
	<path class="st6" d="M58.7,122.5c0,0-3.1-23.2,1.6-34.1s4-15.4,2.8-21.5c-1.2-6.1-8.2-11.7-5.4-15.8"/>
	<path class="st6" d="M72.9,60.6c-1.7,8.1,1.4,19.8-1.7,26.2s-6.2,23-5.1,27.4"/>
	<path class="st6" d="M49.4,203.1c0,0,7,16.3,4.6,24.7s-3.2,19.9-3.2,19.9"/>
	<path class="st6" d="M80.9,165.8c0,0,6.3,12.5,0,25s-4.7,18.3-1.8,23.6c2.9,5.3,2.5,9.9,1.8,21.1"/>
	<path class="st6" d="M72.9,187.5c-0.8,0.5-5.3,16.5-4.4,25.3c0.9,8.8,2.8,9.7,2.2,18.7"/>
	<path class="st6" d="M59.1,206.6c0,0,5.9,11.5,3.1,24.9s0.8,22.7,0.8,22.7"/>
	<path class="st6" d="M75.6,242.4c-1.3,5.6,1.8,16.5,1.8,16.5"/>
	<path class="st6" d="M86,212.8c0,0,3.6,25.5,1.6,34.9c-2.1,9.3,1.6,13.4,1.6,13.4"/>
	<path class="st6" d="M93.8,202.3c0,0-5.2,2.9-3.7,7.2"/>
	<path class="st6" d="M197.3,53.5c-2.5,3.7-5,19.5-3.7,24.7s0,29.4-0.3,34.3c-0.3,5-1.9,15.9,0,23.8"/>
	<path class="st6" d="M206.6,53.5c0,0-6.2,1.5-5.3,12.4s3.5,19.3,1.3,26.1s2.3,24.2-3.2,41.7"/>
	<path class="st6" d="M215.6,54.7c0,0-6.7,9.1-5.2,19.9c1.6,10.8,5.7,14.9,2.4,22.3s0,17.3,0,17.3"/>
	<path class="st6" d="M220.9,69.3c0,0,0,10.9-1.2,16.3s-1.6,21,0.6,23.8"/>
	<path class="st6" d="M231.2,50.1c1.5,0.9,1,36.1,0,44.8s-2.1,16.2,0,19.4"/>
	<path class="st6" d="M154.1,78.9c0,0,10.8,41.1,11,47s12.5,25.8,20,31.4s7.2,17.1,7.2,17.1"/>
	<path class="st6" d="M188.5,151c0.6,0.7,16.1,15,14.1,22.5c-2,7.4-3.3,15.9-2,21.2s3.5,10.7,2,14.8"/>
	<path class="st6" d="M206.6,126.6c0,0,4,26.3,2.3,32s-0.8,17.2,2.8,23s1.5,14.2,0,15"/>
	<path class="st6" d="M236.4,190.8c-0.8,0.4-3.3,9.6-2,15.8s2.4,7.7,0.8,18.7c-1.6,11,1.2,25.2,1.2,25.2"/>
	<path class="st6" d="M192.4,183.7c0,0-1.1,8.6,1.1,20.5c2.3,12.7,7,18.8,4.8,25.2c-2.4,6.9-1.9,18.3-1.9,18.3"/>
	<path class="st6" d="M204.9,190.8c0,0,5.2,10.6,5.2,22c0,11.4-5.5,13.2-5.2,19.9s5.2,16.8,5.2,16.8"/>
	<path class="st6" d="M222.4,193.8c0,0-0.1,2.6-2.6,17.1s-5.6,17.2-4.4,23.6"/>
	<path class="st6" d="M227,204.2c0,0,0,15.9-1,21.2c-1,5.3-1.5,13.2,0.5,17"/>
</g>
</svg>
