<?xml version="1.0" encoding="utf-8"?>
<!-- Generator: Adobe Illustrator 21.0.0, SVG Export Plug-In . SVG Version: 6.00 Build 0)  -->
<svg version="1.1" xmlns="http://www.w3.org/2000/svg" xmlns:xlink="http://www.w3.org/1999/xlink" x="0px" y="0px"
	 viewBox="0 0 460.5 288" style="enable-background:new 0 0 460.5 288;" xml:space="preserve">
<style type="text/css">
	.st0{opacity:0.51;fill:#647FA6;}
	.st1{fill:none;stroke:#231F20;stroke-width:2;stroke-linecap:round;stroke-linejoin:round;stroke-miterlimit:10;}
	.st2{fill:none;stroke:#231F20;stroke-miterlimit:10;}
	.st3{opacity:0.4;fill:#81AA63;}
	.st4{fill:#FDEE19;stroke:#231F20;stroke-miterlimit:10;}
	.st5{fill:#647FA6;stroke:#231F20;stroke-miterlimit:10;}
	.st6{fill:#81AA63;stroke:#231F20;stroke-miterlimit:10;}
	.st7{fill:#F8AE42;}
	.st8{fill:none;stroke:#231F20;stroke-linecap:round;stroke-linejoin:round;stroke-miterlimit:10;}
	.st9{fill:#FFFFFF;stroke:#231F20;stroke-miterlimit:10;}
	.st10{opacity:0.4;fill:#F59220;}
	.st11{fill:none;stroke:#010101;stroke-width:2;stroke-miterlimit:10;}
	.st12{opacity:0.27;fill:#EA2128;}
	.st13{fill:#FFFFFF;stroke:#010101;stroke-width:2;stroke-linecap:round;stroke-linejoin:round;stroke-miterlimit:10;}
	.st14{fill:#231F20;}
</style>
<g id="Layer_1">
	<g>
		<path class="st0" d="M402.8,186.5c-0.2,0.1-1.2,0.2-1.2,0.2c10.1,7.8,15.1,23.5-0.3,31.4c-4.1,2-9.2,3.2-14.3,4.4
			c-31.7,5.7-63.3,3.7-92.6,15.1c-2.9,1.2-5.8,2.5-8.8,3.8c-6,2.6-12.1,5.1-18.3,7.3c-3.1,1.1-6.2,2.1-9.4,2.9
			c-3.2,1-6.3,1.9-9.5,2.6c-15.9,2.2-32.2,2.5-47.5,7.1c-3.2,0.7-6.5,1.4-9.7,2.2c-19,4.9-39.4,9.7-58.5,14.4
			c-3.3,0.7-6.6,1.5-9.9,2.1c-3.3,0.7-6.6,1.3-9.9,1.9c-20.4,3.2-36.6-16-35.4-33.1c1.1-5.2,5.2-10.5,9.3-15.1
			c2.1-2.3,4.1-4.1,6.3-5.8c21.2-17.1,44.7-30.8,70.5-40.7c3.2-1.2,6.5-2.4,9.8-3.6c27.4-8.9,54-18.4,82.6-23
			c2.2-0.3,4.4-0.6,6.5-0.9c6.5-0.8,13.1-1.1,19.5-1.1c2.9,0,5.8,0.1,8.6,0.2c37.8,2.6,76.5,7.4,107.3,24.2
			C400.5,184.7,402.3,185.9,402.8,186.5z"/>
		<path class="st1" d="M48.4,255.1c0,0,95.7-135,367.2-99.5"/>
		<path class="st2" d="M244.2,156c0,0-1.4,6.4-4.8,10.9c-3.4,4.5,2.2,7.3,3.9,10.1c1.7,2.8,1.3,5.6-5,8.4s-10.7,6.7-10.7,11.8
			s5.6,12.9-8.4,24.7c-14,11.8-8.4-7.9-13.5-10.1c-5-2.2-3.9-5.7-6.7-9.3c-2.8-3.6-25.2,3.7-30.9,8.8c-5.6,5-16.8,8.4-16.8,5.6
			s1.1-6.7-3.9-6.7c-5,0-7.9,6.2-10.7,3.9c-2.8-2.2,0-15.8-5.6-11.6c-5.6,4.3-10.7,8.2-14,8.2s-0.6-11.4,4.3-14
			C126.2,194.1,174.2,166.4,244.2,156z"/>
		<path class="st3" d="M247.1,156.6c0,0-1.4,6.4-4.8,10.9c-3.4,4.5,2.2,7.3,3.9,10.1c1.7,2.8,1.3,5.6-5,8.4s-10.7,6.7-10.7,11.8
			c0,5,5.6,12.9-8.4,24.7c-14,11.8-8.4-7.9-13.5-10.1c-5-2.2-3.9-5.7-6.7-9.3c-2.8-3.6-25.2,3.7-30.9,8.8c-5.6,5-16.8,8.4-16.8,5.6
			s1.1-6.7-3.9-6.7s-7.9,6.2-10.7,3.9c-2.8-2.2,0-15.8-5.6-11.6c-5.6,4.3-10.7,8.2-14,8.2c-3.4,0-0.6-11.4,4.3-14
			S177.2,167.1,247.1,156.6z"/>
		<path class="st2" d="M109,210c0,0,3.6,3.6,0,5.5c-3.6,1.9-6.9,4-10.3,4.8c-3.4,0.8,6.6-4.2,5.9-6.3c-0.7-2.1,2.5-5.5,4.8-5.3"/>
		<path class="st4" d="M90.5,216.6c0,0-2,7.5-7.6,10.2c-5.7,2.7-9.7,3.5-11.3,4.9C70,233.1,90.5,216.6,90.5,216.6z"/>
		<path class="st2" d="M307.9,149.9c0,0,2.3,2.8,5,4.5s2.4,3,3.9,4.1c1.4,1.1,17.7-1.4,21.5,0.6s-0.2,6.5-2.1,8.1s-3.4,7.3,0,7.4
			s15.6-1.4,19-3c3.4-1.6,5.6-3,7.8-2.1c2.3,0.9,4.6-6.2,9.4-5.3c4.8,0.9,0.7,3.5,6.4,3.4s51.4-9.5,27.4-12.7
			C406.1,155,339.8,146,307.9,149.9z"/>
		<path class="st5" d="M161.3,170.6c-0.3,1.8-2.4,2.6-3.8,1.4c-10.3-8.7-41-37.3-15.2-47.4C168.1,114.6,163.4,157.1,161.3,170.6z"/>
		<path class="st6" d="M351.4,137.6c-1.5,2-4.6,1.4-5.3-0.9c-2.9-9.3-6.9-27.4,7.2-25.2C367.4,113.7,357.3,129.7,351.4,137.6z"/>
		<circle class="st2" cx="103.2" cy="79.5" r="6.3"/>
		<circle class="st7" cx="105.9" cy="76.4" r="6.3"/>
		<path class="st8" d="M107.5,71.8c0,0,5.1-5.4,7.3-5C117,67.2,98,89.2,94.5,90.6C91,92.1,96,84.3,96,84.3"/>
		
			<ellipse transform="matrix(0.6309 -0.7758 0.7758 0.6309 37.8806 317.2147)" class="st9" cx="352.4" cy="118.8" rx="3.3" ry="3.3"/>
		<ellipse transform="matrix(0.9428 -0.3333 0.3333 0.9428 -37.3644 56.8474)" class="st9" cx="147" cy="137.3" rx="6.2" ry="6.2"/>
		<circle class="st8" cx="105.9" cy="15.2" r="1.6"/>
		<circle class="st8" cx="150.6" cy="40.3" r="1.6"/>
		<circle class="st8" cx="181.3" cy="23.5" r="1.6"/>
		<circle class="st8" cx="89.2" cy="50" r="1.6"/>
		<circle class="st8" cx="65.5" cy="124" r="1.6"/>
		<circle class="st8" cx="18.1" cy="124" r="1.6"/>
		<circle class="st8" cx="25" cy="188.2" r="1.6"/>
		<circle class="st8" cx="13.9" cy="227.2" r="1.6"/>
		<circle class="st8" cx="221.7" cy="110" r="1.6"/>
		<circle class="st8" cx="387.7" cy="87.7" r="1.6"/>
		<circle class="st8" cx="421.2" cy="23.5" r="1.6"/>
		<circle class="st8" cx="299.8" cy="31.9" r="1.6"/>
		<path class="st10" d="M306.9,149.9c0,0,2.3,2.8,5,4.5c2.7,1.8,2.4,3,3.9,4.1c1.4,1.1,17.7-1.4,21.5,0.6c3.7,2-0.2,6.5-2.1,8.1
			c-1.9,1.6-3.4,7.3,0,7.4c3.4,0.1,15.6-1.4,19-3s5.6-3,7.8-2.1c2.3,0.9,4.6-6.2,9.4-5.3c4.8,0.9,0.7,3.5,6.4,3.4
			s51.4-9.5,27.4-12.7C405.1,155,338.8,146,306.9,149.9z"/>
		<g>
			
				<ellipse transform="matrix(0.5574 -0.8302 0.8302 0.5574 -57.0955 191.6909)" class="st11" cx="151.3" cy="149.4" rx="49.8" ry="49.8"/>
			<path class="st12" d="M175,196.4c0,0,41.6,53.5,43.7,54.6c0.4,0.2,2.1,1.1,3,1c6.8-1.2,9.6-9.5,5.3-15l-37.8-48.2"/>
			<path class="st11" d="M170.7,194.2c0,0,41.6,53.5,43.7,54.6c0.4,0.2,2.1,1.1,3,1c6.8-1.2,9.6-9.5,5.3-15l-37.8-48.2"/>
			<path class="st13" d="M171.2,198.5l-0.7-1.1c-0.5-0.7-0.3-1.8,0.5-2.3l15.3-10.1c0.7-0.5,1.8-0.3,2.3,0.5l0.7,1.1
				c0.5,0.7,0.3,1.8-0.5,2.3L173.5,199C172.7,199.5,171.7,199.3,171.2,198.5z"/>
		</g>
	</g>
</g>
<g id="Layer_2">
	<g>
		<g>
			<path class="st14" d="M160.6,116.7l2.8-4.2c0.2-0.2,0.5-0.3,0.7-0.1c0.2,0.2,0.3,0.5,0.1,0.7l0,0l-2.8,4.1l0,0
				c-0.2,0.2-0.5,0.3-0.7,0.1C160.5,117.2,160.4,116.9,160.6,116.7L160.6,116.7z"/>
			<path class="st14" d="M166.4,108.5l3.1-4c0.2-0.2,0.5-0.2,0.7-0.1c0.2,0.2,0.2,0.5,0.1,0.7l0,0l-3,4l0,0
				c-0.2,0.2-0.5,0.2-0.7,0.1C166.2,109,166.2,108.7,166.4,108.5L166.4,108.5z"/>
			<path class="st14" d="M172.6,100.6l3.3-3.8c0.2-0.2,0.4-0.2,0.6,0c0.2,0.2,0.2,0.4,0,0.6l0,0l-3.2,3.8l0,0
				c-0.2,0.2-0.5,0.2-0.6,0.1C172.4,101.1,172.4,100.8,172.6,100.6L172.6,100.6z"/>
			<path class="st14" d="M179.2,93.1l3.4-3.6c0.2-0.2,0.4-0.2,0.6,0c0.2,0.2,0.2,0.4,0,0.6l0,0l-3.4,3.6l0,0c-0.2,0.2-0.4,0.2-0.6,0
				C179,93.6,179,93.3,179.2,93.1L179.2,93.1z"/>
			<path class="st14" d="M186.2,85.9l3.6-3.4c0.2-0.2,0.4-0.1,0.6,0c0.2,0.2,0.1,0.4,0,0.6l0,0l-3.6,3.4l0,0c-0.2,0.2-0.4,0.2-0.6,0
				C186,86.4,186,86.1,186.2,85.9L186.2,85.9z"/>
			<path class="st14" d="M193.6,79.2l3.8-3.2c0.2-0.1,0.4-0.1,0.5,0c0.1,0.2,0.1,0.4,0,0.5l0,0l-3.8,3.2l0,0c-0.2,0.1-0.4,0.1-0.5,0
				S193.4,79.3,193.6,79.2L193.6,79.2z"/>
			<path class="st14" d="M201.4,72.9l4-3c0.2-0.1,0.4-0.1,0.5,0.1c0.1,0.2,0.1,0.4-0.1,0.5l0,0l-4,3l0,0c-0.2,0.1-0.4,0.1-0.5-0.1
				C201.2,73.2,201.2,73,201.4,72.9L201.4,72.9z"/>
			<path class="st14" d="M209.6,67.1l4.3-2.6c0.2-0.1,0.4,0,0.5,0.1c0.1,0.2,0,0.4-0.1,0.5l0,0l-4.2,2.6l0,0
				c-0.2,0.1-0.4,0.1-0.5-0.1C209.3,67.4,209.4,67.2,209.6,67.1L209.6,67.1z"/>
			<path class="st14" d="M218.2,62l4.5-2.3c0.2-0.1,0.3,0,0.4,0.1c0.1,0.2,0,0.3-0.1,0.4l0,0l-4.4,2.3l0,0c-0.2,0.1-0.4,0-0.4-0.1
				S218,62.1,218.2,62L218.2,62z"/>
			<path class="st14" d="M227.2,57.7l4.7-1.8c0.1-0.1,0.3,0,0.4,0.2c0.1,0.1,0,0.3-0.2,0.4l0,0l-4.6,1.8l0,0c-0.2,0.1-0.3,0-0.4-0.2
				S227.1,57.7,227.2,57.7L227.2,57.7z"/>
			<path class="st14" d="M236.7,54.3l4.8-1.3c0.1,0,0.3,0,0.3,0.2c0,0.1,0,0.3-0.2,0.3l0,0l-4.8,1.3l0,0c-0.1,0-0.3,0-0.3-0.2
				C236.4,54.5,236.5,54.3,236.7,54.3L236.7,54.3z"/>
			<path class="st14" d="M246.4,52l5-0.7c0.1,0,0.3,0.1,0.3,0.2s-0.1,0.3-0.2,0.3l0,0l-4.9,0.7l0,0c-0.1,0-0.3-0.1-0.3-0.2
				C246.2,52.1,246.3,52,246.4,52L246.4,52z"/>
			<path class="st14" d="M256.4,50.9l5-0.1c0.1,0,0.2,0.1,0.2,0.2s-0.1,0.2-0.2,0.2l0,0l-5,0.1l0,0c-0.1,0-0.2-0.1-0.2-0.2
				S256.2,50.9,256.4,50.9L256.4,50.9z"/>
			<path class="st14" d="M266.4,51.1l5,0.6c0.1,0,0.2,0.1,0.2,0.2c0,0.1-0.1,0.2-0.2,0.2l0,0l-5-0.6l0,0c-0.1,0-0.2-0.1-0.2-0.2
				S266.3,51.1,266.4,51.1L266.4,51.1z"/>
			<path class="st14" d="M276.3,52.6l4.9,1.2c0.1,0,0.2,0.1,0.1,0.2c0,0.1-0.1,0.2-0.2,0.1l0,0l-4.8-1.2l0,0c-0.1,0-0.2-0.1-0.1-0.2
				S276.2,52.5,276.3,52.6L276.3,52.6z"/>
			<path class="st14" d="M285.9,55.3l4.7,1.8c0.1,0,0.1,0.1,0.1,0.2s-0.1,0.1-0.2,0.1l0,0l-4.7-1.8l0,0c-0.1,0-0.1-0.1-0.1-0.2
				C285.7,55.3,285.8,55.3,285.9,55.3L285.9,55.3z"/>
			<path class="st14" d="M295.2,59.1l4.5,2.3c0.1,0,0.1,0.1,0.1,0.2c0,0.1-0.1,0.1-0.2,0.1l0,0l-4.5-2.2l0,0c-0.1,0-0.1-0.1-0.1-0.2
				C295,59.1,295.1,59.1,295.2,59.1L295.2,59.1z"/>
			<path class="st14" d="M304,63.9l4.2,2.7c0.1,0,0.1,0.1,0,0.2c0,0.1-0.1,0.1-0.2,0l-4.2-2.7l0,0c-0.1,0-0.1-0.1,0-0.2
				C303.8,63.9,303.9,63.8,304,63.9L304,63.9z"/>
			<path class="st14" d="M312.3,69.4l4,3c0,0,0,0.1,0,0.1c0,0-0.1,0-0.1,0l-4-3c0,0-0.1-0.1,0-0.1C312.2,69.4,312.2,69.4,312.3,69.4
				L312.3,69.4z"/>
			<path class="st14" d="M320.1,75.6l3.8,3.3c0,0,0,0.1,0,0.1s-0.1,0-0.1,0l-3.8-3.3c0,0,0-0.1,0-0.1
				C320.1,75.6,320.1,75.6,320.1,75.6L320.1,75.6z"/>
			<path class="st14" d="M327.6,82.3l3.6,3.5c0,0,0,0,0,0.1c0,0,0,0-0.1,0L327.6,82.3C327.5,82.4,327.5,82.3,327.6,82.3
				C327.5,82.3,327.5,82.3,327.6,82.3L327.6,82.3z"/>
			<path class="st14" d="M334.6,89.4l3.4,3.7c0,0,0,0,0,0c0,0,0,0,0,0L334.6,89.4C334.5,89.5,334.5,89.4,334.6,89.4
				C334.5,89.4,334.6,89.4,334.6,89.4L334.6,89.4z"/>
			<path class="st14" d="M341.2,96.9l3.2,3.9l0,0L341.2,96.9C341.2,96.9,341.2,96.9,341.2,96.9C341.2,96.9,341.2,96.9,341.2,96.9
				L341.2,96.9z"/>
		</g>
	</g>
</g>
</svg>
