<?xml version="1.0" encoding="utf-8"?>
<!-- Generator: Adobe Illustrator 21.0.0, SVG Export Plug-In . SVG Version: 6.00 Build 0)  -->
<svg version="1.1" id="Layer_1" xmlns="http://www.w3.org/2000/svg" xmlns:xlink="http://www.w3.org/1999/xlink" x="0px" y="0px"
	 viewBox="0 0 460.5 288" style="enable-background:new 0 0 460.5 288;" xml:space="preserve">
<style type="text/css">
	.st0{opacity:0.48;fill:#81AA63;}
	.st1{fill:none;stroke:#231F20;stroke-width:1.5;stroke-linecap:round;stroke-linejoin:round;stroke-miterlimit:10;}
	.st2{opacity:0.51;fill:#647FA6;}
</style>
<g>
	<path class="st0" d="M135.3,182c0,0-8.6,4-6.8,8.5c1.8,4.4,4.9,8.5,9,6.4c4.1-2.1,5.9-3.7,5.9-3.7s-2.9,8.3-2,13.2s2.2,9.6,8,12.2
		s6.9,1.3,6.9,1.3s-2.6,4.2,0,6.6s7.9,5.2,9.7,4c0,0-0.8,3.3,2,4.9s9.2,2.7,13.7-1.2c4.5-4,5.1-3.6,5.1-3.6L135.3,182z"/>
	<path class="st0" d="M286.3,125.6c0,0-8.5-6.4-20.9-7.7c-12.4-1.3-29-4.2-34.6-6c-5.7-1.7-9.4-6.8-23.7,4.8s-25.4,19-17.5,28.4
		s26.9-9.4,26.9-9.4s55.9,59.2,58.6,59s15.4-1.9,19.4-7.7s89.6,1,94.7-1.3c3.4-1.5,5.7-9.4-8.1-25.9s13.5-28.9,6-35.1
		S297.8,125.6,286.3,125.6z"/>
	<g>
		<path class="st1" d="M74.2,86.4c0,0,91.9,13.2,96.9,11.2c4.3-1.6,10.8-6.1,27.7-3.2c5.9,1,15.5,3.3,21.4,3.9
			c9.6,1.1,17.3,4.7,20.1,16.7"/>
		<path class="st1" d="M224.4,130c0,0-20.4,15-27.2,16.3c-11,2.1-13.7-9-5.8-16.7s23.2-19.7,30-19.8c6.7-0.1,13.8,5.4,28.3,6.6
			c12.9,1.1,17-1.7,34,8.1c1.6,1,3.5,1.4,5.4,1.4l81.7-1.8"/>
		<path class="st1" d="M215,136.8c0,0,62.5,56.9,63.8,63.7c1.3,6.9-5.1,13.4-12.8,9.3c-7.7-4.1-47.5-37.9-47.5-37.9"/>
		<path class="st1" d="M205.5,190.7c0,0,22.6,22.1,33.5,23.5c10.9,1.3,16,3.7,19.4,0c2.5-2.8,1.7-8.4,1.7-8.4"/>
		<path class="st1" d="M188.3,205.5c0,0,31.5,25.6,44.4,21c12.9-4.7,8.9-11.4,8.9-11.4"/>
		<path class="st1" d="M68,160.2c0,0,43.9-1.9,50.3,4.8c6.4,6.7,60.7,65.8,74.4,66.9c13.7,1,14.6-13.2,12.8-14.1"/>
		<path class="st1" d="M142.2,190.1c0,0-6.8,8.5-13,2.8c-7.4-6.8,2.8-13.4,2.8-13.4"/>
		<path class="st1" d="M141.6,190.7c0,0-6.6,18.4,4.7,25.2c11.4,6.8,14.7-7.3,14.7-7.3"/>
		<path class="st1" d="M171,219.4c0,0-5.4,11.1-11.1,8.6c0,0-8.3-3.8-5.7-10.2"/>
		<path class="st1" d="M183.8,228.3c0,0-8.7,8.5-14.7,5.9c-6-2.6-5.8-5.7-4.2-7.1"/>
		<path class="st1" d="M278.8,160"/>
		<path class="st1" d="M278.2,160c0,0,1.7,12.8-10.1,17.6"/>
		<path class="st1" d="M274.9,194.8c0,0,15.4-2.7,19.4-7.7c4.1-4.9,94-2.6,94-2.6"/>
	</g>
	<path class="st2" d="M74.3,83.7c0,0,91.7,12.8,96.1,11.4c4.4-1.4,9.7-5.7,20.8-4.3c11.1,1.4,26.8,4.5,33.6,5.4
		c6.8,0.9,15,7.8,16.5,16.1c0,0-14-6.5-18.9-5.2s-35.7,20.1-34.6,29s8.1,12.6,28.1-2c0,0,61.6,59.8,63.3,62.5
		c1.7,2.8-1,12.4-6.1,11.7c-5-0.7-12.6-4.8-12.6-4.8s2.8,7.4-2.2,9.5c-5.1,2.1-15.7-0.5-15.7-0.5s3.8,8-7.2,10.7s-28.3-6.7-28.3-6.7
		s1.3,10.1-7.5,12.1c-8.8,1.9-15.8-4-15.8-4s-62.2-58.3-66-63c-3.7-4.7-46.6-6.1-49.1-3.9s-12.6-11.6,0-29S52.4,89.9,74.3,83.7z"/>
</g>
</svg>
