<?xml version="1.0" encoding="utf-8"?>
<!-- Generator: Adobe Illustrator 21.0.0, SVG Export Plug-In . SVG Version: 6.00 Build 0)  -->
<svg version="1.1" xmlns="http://www.w3.org/2000/svg" xmlns:xlink="http://www.w3.org/1999/xlink" x="0px" y="0px"
	 viewBox="0 0 288 288" style="enable-background:new 0 0 288 288;" xml:space="preserve">
<style type="text/css">
	.st0{fill:#FFFFFF;stroke:#231F20;stroke-miterlimit:10;}
	.st1{opacity:0.27;fill:#EA2128;}
	.st2{fill:none;stroke:#231F20;stroke-linecap:round;stroke-linejoin:round;stroke-miterlimit:10;}
	.st3{opacity:0.21;fill:#EA2128;}
	.st4{opacity:0.48;fill:#81AA63;}
	.st5{fill:#F8AE42;}
	.st6{fill:#647FA6;}
	.st7{opacity:0.51;fill:#647FA6;}
	.st8{fill:none;stroke:#231F20;stroke-miterlimit:10;}
	.st9{opacity:0.35;fill:#F8AE42;}
</style>
<g id="Layer_1">
	<g>
		<polygon class="st0" points="63.6,209.5 65.1,236.6 140.5,281.2 213.7,235.3 215.4,209.5 139.8,180.1 		"/>
		<g>
			<path class="st1" d="M187.5,182.2l-37-9.3c-4.8-1.2-7.7-6.1-6.5-10.9l22-87.5c1.2-4.8,6.1-7.7,10.9-6.5l37,9.3
				c4.8,1.2,7.7,6.1,6.5,10.9l-22,87.5C197.1,180.5,192.3,183.4,187.5,182.2z"/>
			<path class="st2" d="M185.9,181.4l-37-9.3c-4.8-1.2-7.7-6.1-6.5-10.9l22-87.5c1.2-4.8,6.1-7.7,10.9-6.5l37,9.3
				c4.8,1.2,7.7,6.1,6.5,10.9l-22,87.5C195.6,179.7,190.7,182.6,185.9,181.4z"/>
			<path class="st3" d="M192.5,170.4l-40.9-10.3c-2-0.5-3.2-2.5-2.7-4.5l17.9-71.1c0.5-2,2.5-3.2,4.5-2.7l40.9,10.3
				c2,0.5,3.2,2.5,2.7,4.5L197,167.7C196.5,169.7,194.5,170.9,192.5,170.4z"/>
			<path class="st2" d="M190.9,168.9l-40.9-10.3c-2-0.5-3.2-2.5-2.7-4.5l17.9-71.1c0.5-2,2.5-3.2,4.5-2.7l40.9,10.3
				c2,0.5,3.2,2.5,2.7,4.5l-17.9,71.1C194.8,168.2,192.8,169.4,190.9,168.9z"/>
			<circle class="st2" cx="169.7" cy="170.9" r="3.8"/>
		</g>
		<g>
			<path class="st4" d="M79,78.6c0,0-4,0.4-7.2,8.5c-3.1,8.1-15.7,24.7-2.5,44.8s4.2,26.2,12.3,32.4c8.1,6.1-2.8,19.8,31,7
				c33.9-12.7,16.5-7.6,17.8-17.4c1.3-9.7-7-24-6.6-38c0.4-14.1-7.8-31.8-19.5-35.8C92.6,76.1,92.8,71.9,79,78.6z"/>
			<path class="st2" d="M76.2,78.6c0,0-4,0.4-7.2,8.5c-3.1,8.1-15.7,24.7-2.5,44.8s4.2,26.2,12.3,32.4c8.1,6.1-2.8,19.8,31,7
				c33.9-12.7,16.5-7.6,17.8-17.4c1.3-9.7-7-24-6.6-38c0.4-14.1-7.8-31.8-19.5-35.8C89.8,76.1,90,71.9,76.2,78.6z"/>
			<path class="st2" d="M78.5,80.9c0,0-1.7,1.7-1.2,2.6c0.7,1.3,7.7,3.7,9.1-0.4c1.3-4,4.3-7.6,6.2-6.8"/>
			<path class="st5" d="M113.1,143.8l-4.6-4.8c-0.5-0.5-1.3-0.3-1.6,0.3l-2.8,6.9"/>
			<path class="st2" d="M80.7,85.5c-1,5.1,15.4,23.8,21.9,35c3.4,6,3.4,12.8,2.7,18c-0.7,4.6-1.9,7.8-1.9,7.8l8.9-2.1l-6.9-6.1"/>
			<path class="st5" d="M101.7,133.7l-3.2-4.3c-0.5-0.6-1.5-0.5-1.7,0.3l-2,6.5"/>
			<path class="st2" d="M91.9,105c6.3,9,5.1,23.5,5.1,23.5l-2.5,7.4l5.8-2.5l-3.3-4.8"/>
		</g>
		<line class="st5" x1="93.6" y1="137" x2="100.6" y2="134.5"/>
		<polygon class="st0" points="69.6,135.3 139.8,180.1 86.7,224.7 12.1,175.6 		"/>
		<polygon class="st0" points="215,135.3 139.8,180.1 191.9,224.7 266.7,176.3 		"/>
		<path class="st6" d="M115.3,88.1l6.4,5.4c0,0-0.5,36.1-1.4,34.7C118.6,125.8,113.2,104.8,115.3,88.1z"/>
		<path class="st7" d="M159,35.1c0.2-1.5,1.6-17.5-3.1-19.3c-6.2-2.4-41-8.1-40.5,6.4c0-0.7,2.1-1.7,2.6-2c3.8-2.7,3.9,11.2,4,13
			c0,0.7,0.3,1.8-0.3,2.3c0,0,9.3-6.1,19-5.7C150,30.1,159,35.1,159,35.1z"/>
		<path class="st6" d="M114.6,41.5c-0.4,0.6-1.3,0.2-1.2-0.4c0.5-6.8,2.1-21.7,5.4-21.6c4.3,0.1,3.2,17.1,3.3,15.7
			C122,35.2,117.4,37.5,114.6,41.5z"/>
		<circle class="st7" cx="141.5" cy="64.2" r="34.5"/>
		<circle class="st7" cx="141.5" cy="63.3" r="28.8"/>
		<path class="st5" d="M143.1,65.5c0.1-0.3,4.2-5.2,4.2-5.2v-1.8l10.9-4.4l-7.5,8.4l-2.1-0.6L143.1,65.5z"/>
		<g>
			<rect x="104" y="44" transform="matrix(0.9137 0.4064 -0.4064 0.9137 28.6962 -39.1459)" class="st5" width="5" height="7.9"/>
			<polygon class="st5" points="109.1,79 104.4,80.3 102.1,73.6 106.8,72.2 			"/>
			
				<rect x="101.9" y="63.7" transform="matrix(0.9991 -4.232437e-02 4.232437e-02 0.9991 -2.6982 4.4552)" class="st5" width="3.9" height="4.5"/>
			
				<rect x="98.8" y="60.5" transform="matrix(0.9991 -4.232437e-02 4.232437e-02 0.9991 -2.7077 4.306)" class="st5" width="3.1" height="11.3"/>
		</g>
		<path class="st8" d="M120.2,36c-0.1,1.5,1-15.5-3.3-15.7c-4.3-0.1-5.6,24.9-5.6,24.9"/>
		<path class="st8" d="M157,33.4C157,33.4,157.1,33.4,157,33.4c0.2-1.5,1.6-16.5-3.3-18.1c-6.2-2.1-40.2-6.5-39.2,8
			c0,0,0.9-2.7,2.4-2.9s3.1,4.2,3,6.4c0,2.2,0.2,9.3,0.2,9.3s9.1-6.4,18.8-6.3C148.3,29.8,156.1,32.5,157,33.4z"/>
		<circle class="st8" cx="140.1" cy="64.2" r="34.5"/>
		<path class="st2" d="M158.3,93.4c0,0-0.7,34.8-6.5,35.6c-11.3,1.7-29.4,1.7-32.5-2.1c-5.7-7-6.5-34.8-5.6-40.7
			C113.7,86.3,131.3,108.5,158.3,93.4z"/>
		<circle class="st2" cx="140.6" cy="64.3" r="29.2"/>
		<rect x="104" y="44.9" transform="matrix(0.9137 0.4064 -0.4064 0.9137 29.0694 -39.0667)" class="st2" width="5" height="7.9"/>
		<polygon class="st2" points="109.1,79.9 104.4,81.2 102.1,74.5 106.8,73.1 		"/>
		
			<rect x="101.9" y="64.6" transform="matrix(0.9991 -4.232437e-02 4.232437e-02 0.9991 -2.7371 4.456)" class="st2" width="3.9" height="4.5"/>
		
			<rect x="98.8" y="61.4" transform="matrix(0.9991 -4.232437e-02 4.232437e-02 0.9991 -2.7465 4.3068)" class="st2" width="3.1" height="11.3"/>
		<circle class="st2" cx="141.3" cy="64.4" r="24.6"/>
		<path class="st2" d="M137.7,40.6l-0.3,3.4l3.9,1.3l3.3-1.9v-3.3C144.6,40.1,138.7,38.9,137.7,40.6z"/>
		<path class="st2" d="M130.6,42.7c0.2-0.1,1.8,2.5,1.8,2.5l-4.1,2.5l-1.8-2.5L130.6,42.7z"/>
		<path class="st2" d="M152,42.5l-1.3,1.8l2.9,1.8l2.3-1.5C155.9,44.6,153,42.5,152,42.5z"/>
		<path class="st2" d="M142.5,66.3c0.1-0.3,4.2-5.2,4.2-5.2v-1.8l10.9-4.4l-7.5,8.4l-2.1-0.6L142.5,66.3z"/>
		<path class="st2" d="M119.3,127c-2.8-1.6,0.1-34.6,0.1-34.6"/>
		<path class="st7" d="M120.1,92.2c0,0-2.2,33.8,0.7,35c2.9,1.3,12.9,3.7,18.4,3.1c5.5-0.6,14.6-0.3,15.7-3
			c1.2-2.7,2.9-9.7,3.3-13.9s2.2-22.1,2.2-22.1s-9.9,7.4-20.1,7.1C130.2,98.2,120.5,93.7,120.1,92.2z"/>
		<polygon class="st9" points="49.4,213.3 38.4,198.1 56,172.3 67.3,186.1 		"/>
		<polygon class="st9" points="204.2,189.3 219.5,178.4 245.3,196 231.4,207.3 		"/>
		<line class="st8" x1="209.5" y1="130.5" x2="215.1" y2="135.5"/>
	</g>
</g>
<g id="Layer_2">
	<g>
		<polygon class="st5" points="143.1,65.5 139.2,62 139.7,58.4 125.3,50.3 133.5,64.8 137.5,63.9 		"/>
		<polygon class="st2" points="142.5,66.3 138.6,62.8 139.1,59.2 124.7,51.1 132.9,65.6 136.8,64.7 		"/>
	</g>
</g>
</svg>
